<mxfile host="app.diagrams.net" modified="2023-05-01T15:29:56.614Z" agent="Mozilla/5.0 (Macintosh; Intel Mac OS X 10_15_7) AppleWebKit/537.36 (KHTML, like Gecko) Chrome/111.0.0.0 Safari/537.36" etag="oM1lzCGByFnegj6Wyljj" version="21.1.4" type="device">
  <diagram id="CvLUBIPTDRsUBErNTcAz" name="Page-1">
    <mxGraphModel dx="1758" dy="726" grid="1" gridSize="10" guides="1" tooltips="1" connect="1" arrows="1" fold="1" page="1" pageScale="1" pageWidth="850" pageHeight="1100" math="0" shadow="0">
      <root>
        <mxCell id="0" />
        <mxCell id="1" parent="0" />
        <mxCell id="d63O-XYvaldmZTIrFxoa-1" style="edgeStyle=orthogonalEdgeStyle;rounded=0;orthogonalLoop=1;jettySize=auto;html=1;exitX=0.5;exitY=1;exitDx=0;exitDy=0;entryX=0.5;entryY=0;entryDx=0;entryDy=0;endArrow=none;endFill=0;" edge="1" parent="1" source="d63O-XYvaldmZTIrFxoa-2" target="d63O-XYvaldmZTIrFxoa-18">
          <mxGeometry relative="1" as="geometry">
            <Array as="points">
              <mxPoint x="120" y="95.63" />
              <mxPoint x="340" y="95.63" />
            </Array>
          </mxGeometry>
        </mxCell>
        <mxCell id="d63O-XYvaldmZTIrFxoa-2" value="u_name" style="ellipse;whiteSpace=wrap;html=1;align=center;" vertex="1" parent="1">
          <mxGeometry x="90" y="40" width="60" height="31.25" as="geometry" />
        </mxCell>
        <mxCell id="d63O-XYvaldmZTIrFxoa-3" style="edgeStyle=orthogonalEdgeStyle;rounded=0;orthogonalLoop=1;jettySize=auto;html=1;exitX=0.5;exitY=1;exitDx=0;exitDy=0;entryX=0.5;entryY=0;entryDx=0;entryDy=0;endArrow=none;endFill=0;" edge="1" parent="1" source="d63O-XYvaldmZTIrFxoa-4" target="d63O-XYvaldmZTIrFxoa-18">
          <mxGeometry relative="1" as="geometry" />
        </mxCell>
        <mxCell id="d63O-XYvaldmZTIrFxoa-4" value="&lt;u&gt;email&lt;/u&gt;" style="ellipse;whiteSpace=wrap;html=1;align=center;" vertex="1" parent="1">
          <mxGeometry x="11" y="40.629999999999995" width="60" height="30" as="geometry" />
        </mxCell>
        <mxCell id="d63O-XYvaldmZTIrFxoa-5" value="u_password" style="ellipse;whiteSpace=wrap;html=1;align=center;" vertex="1" parent="1">
          <mxGeometry x="169" y="40.629999999999995" width="80" height="30" as="geometry" />
        </mxCell>
        <mxCell id="d63O-XYvaldmZTIrFxoa-6" style="edgeStyle=orthogonalEdgeStyle;rounded=0;orthogonalLoop=1;jettySize=auto;html=1;exitX=0.5;exitY=1;exitDx=0;exitDy=0;entryX=0.5;entryY=0;entryDx=0;entryDy=0;endArrow=none;endFill=0;" edge="1" parent="1">
          <mxGeometry relative="1" as="geometry">
            <mxPoint x="390.87499999999994" y="66.62999999999988" as="sourcePoint" />
            <mxPoint x="340.00000000000006" y="115.63" as="targetPoint" />
            <Array as="points">
              <mxPoint x="391" y="95.63" />
              <mxPoint x="340" y="95.63" />
            </Array>
          </mxGeometry>
        </mxCell>
        <mxCell id="d63O-XYvaldmZTIrFxoa-7" value="user_image" style="ellipse;whiteSpace=wrap;html=1;align=center;" vertex="1" parent="1">
          <mxGeometry x="350.75" y="40.629999999999995" width="80.25" height="31" as="geometry" />
        </mxCell>
        <mxCell id="d63O-XYvaldmZTIrFxoa-8" style="edgeStyle=orthogonalEdgeStyle;rounded=0;orthogonalLoop=1;jettySize=auto;html=1;exitX=0.5;exitY=1;exitDx=0;exitDy=0;entryX=0.5;entryY=0;entryDx=0;entryDy=0;endArrow=none;endFill=0;" edge="1" parent="1" source="d63O-XYvaldmZTIrFxoa-9" target="d63O-XYvaldmZTIrFxoa-18">
          <mxGeometry relative="1" as="geometry">
            <Array as="points">
              <mxPoint x="301" y="95.63" />
              <mxPoint x="340" y="95.63" />
            </Array>
          </mxGeometry>
        </mxCell>
        <mxCell id="d63O-XYvaldmZTIrFxoa-9" value="u_role" style="ellipse;whiteSpace=wrap;html=1;align=center;" vertex="1" parent="1">
          <mxGeometry x="271" y="40" width="60" height="31.25" as="geometry" />
        </mxCell>
        <mxCell id="d63O-XYvaldmZTIrFxoa-10" value="mimetype" style="ellipse;whiteSpace=wrap;html=1;align=center;" vertex="1" parent="1">
          <mxGeometry x="451" y="40.629999999999995" width="63" height="30" as="geometry" />
        </mxCell>
        <mxCell id="d63O-XYvaldmZTIrFxoa-11" style="edgeStyle=orthogonalEdgeStyle;rounded=0;orthogonalLoop=1;jettySize=auto;html=1;exitX=0.5;exitY=1;exitDx=0;exitDy=0;entryX=0.5;entryY=0;entryDx=0;entryDy=0;endArrow=none;endFill=0;" edge="1" parent="1" source="d63O-XYvaldmZTIrFxoa-12" target="d63O-XYvaldmZTIrFxoa-18">
          <mxGeometry relative="1" as="geometry" />
        </mxCell>
        <mxCell id="d63O-XYvaldmZTIrFxoa-12" value="created_date" style="ellipse;whiteSpace=wrap;html=1;align=center;" vertex="1" parent="1">
          <mxGeometry x="611" y="40.629999999999995" width="80" height="30" as="geometry" />
        </mxCell>
        <mxCell id="d63O-XYvaldmZTIrFxoa-13" style="edgeStyle=orthogonalEdgeStyle;rounded=0;orthogonalLoop=1;jettySize=auto;html=1;exitX=0.5;exitY=1;exitDx=0;exitDy=0;entryX=0.5;entryY=0;entryDx=0;entryDy=0;endArrow=none;endFill=0;" edge="1" parent="1" source="d63O-XYvaldmZTIrFxoa-14" target="d63O-XYvaldmZTIrFxoa-18">
          <mxGeometry relative="1" as="geometry" />
        </mxCell>
        <mxCell id="d63O-XYvaldmZTIrFxoa-14" value="filename" style="ellipse;whiteSpace=wrap;html=1;align=center;" vertex="1" parent="1">
          <mxGeometry x="534" y="41.129999999999995" width="63" height="30" as="geometry" />
        </mxCell>
        <mxCell id="d63O-XYvaldmZTIrFxoa-15" style="edgeStyle=orthogonalEdgeStyle;rounded=0;orthogonalLoop=1;jettySize=auto;html=1;exitX=0.5;exitY=0;exitDx=0;exitDy=0;entryX=0.5;entryY=1;entryDx=0;entryDy=0;endArrow=none;endFill=0;" edge="1" parent="1" source="d63O-XYvaldmZTIrFxoa-18" target="d63O-XYvaldmZTIrFxoa-5">
          <mxGeometry relative="1" as="geometry" />
        </mxCell>
        <mxCell id="d63O-XYvaldmZTIrFxoa-16" style="edgeStyle=orthogonalEdgeStyle;rounded=0;orthogonalLoop=1;jettySize=auto;html=1;exitX=0.5;exitY=0;exitDx=0;exitDy=0;entryX=0.5;entryY=1;entryDx=0;entryDy=0;endArrow=none;endFill=0;" edge="1" parent="1" source="d63O-XYvaldmZTIrFxoa-18" target="d63O-XYvaldmZTIrFxoa-10">
          <mxGeometry relative="1" as="geometry" />
        </mxCell>
        <mxCell id="d63O-XYvaldmZTIrFxoa-17" style="edgeStyle=orthogonalEdgeStyle;rounded=0;orthogonalLoop=1;jettySize=auto;html=1;exitX=0.5;exitY=1;exitDx=0;exitDy=0;entryX=1;entryY=0.5;entryDx=0;entryDy=0;endArrow=none;endFill=0;" edge="1" parent="1" source="d63O-XYvaldmZTIrFxoa-18" target="d63O-XYvaldmZTIrFxoa-19">
          <mxGeometry relative="1" as="geometry" />
        </mxCell>
        <mxCell id="d63O-XYvaldmZTIrFxoa-18" value="User" style="whiteSpace=wrap;html=1;align=center;" vertex="1" parent="1">
          <mxGeometry x="309" y="120.63" width="62" height="30" as="geometry" />
        </mxCell>
        <mxCell id="d63O-XYvaldmZTIrFxoa-19" value="" style="triangle;whiteSpace=wrap;html=1;rotation=-90;direction=east;" vertex="1" parent="1">
          <mxGeometry x="320.13" y="166.63" width="40.88" height="50.88" as="geometry" />
        </mxCell>
        <mxCell id="1Xk_JtqRyBomEwf9A8p_-35" style="edgeStyle=orthogonalEdgeStyle;rounded=0;orthogonalLoop=1;jettySize=auto;html=1;exitX=0.5;exitY=1;exitDx=0;exitDy=0;entryX=0.5;entryY=0;entryDx=0;entryDy=0;endArrow=none;endFill=0;" edge="1" parent="1" source="d63O-XYvaldmZTIrFxoa-20" target="d63O-XYvaldmZTIrFxoa-30">
          <mxGeometry relative="1" as="geometry">
            <Array as="points">
              <mxPoint x="341" y="230" />
              <mxPoint x="431" y="230" />
            </Array>
          </mxGeometry>
        </mxCell>
        <mxCell id="d63O-XYvaldmZTIrFxoa-20" value="ISA" style="text;html=1;strokeColor=none;fillColor=none;align=center;verticalAlign=middle;whiteSpace=wrap;rounded=0;" vertex="1" parent="1">
          <mxGeometry x="311" y="182.51" width="60" height="30" as="geometry" />
        </mxCell>
        <mxCell id="d63O-XYvaldmZTIrFxoa-21" style="edgeStyle=orthogonalEdgeStyle;rounded=0;orthogonalLoop=1;jettySize=auto;html=1;exitX=0.5;exitY=0;exitDx=0;exitDy=0;entryX=0;entryY=0.5;entryDx=0;entryDy=0;endArrow=none;endFill=0;" edge="1" parent="1" source="d63O-XYvaldmZTIrFxoa-22" target="d63O-XYvaldmZTIrFxoa-19">
          <mxGeometry relative="1" as="geometry">
            <Array as="points">
              <mxPoint x="200" y="230" />
              <mxPoint x="341" y="230" />
            </Array>
          </mxGeometry>
        </mxCell>
        <mxCell id="d63O-XYvaldmZTIrFxoa-22" value="Admin" style="whiteSpace=wrap;html=1;align=center;" vertex="1" parent="1">
          <mxGeometry x="169" y="278.63" width="62" height="30" as="geometry" />
        </mxCell>
        <mxCell id="d63O-XYvaldmZTIrFxoa-23" style="edgeStyle=orthogonalEdgeStyle;rounded=0;orthogonalLoop=1;jettySize=auto;html=1;entryX=0;entryY=0.5;entryDx=0;entryDy=0;endArrow=none;endFill=0;exitX=0.5;exitY=0;exitDx=0;exitDy=0;" edge="1" parent="1" source="d63O-XYvaldmZTIrFxoa-26" target="d63O-XYvaldmZTIrFxoa-19">
          <mxGeometry relative="1" as="geometry">
            <mxPoint x="571" y="240.63" as="sourcePoint" />
            <Array as="points">
              <mxPoint x="533" y="230" />
              <mxPoint x="341" y="230" />
            </Array>
          </mxGeometry>
        </mxCell>
        <mxCell id="d63O-XYvaldmZTIrFxoa-24" style="edgeStyle=orthogonalEdgeStyle;rounded=0;orthogonalLoop=1;jettySize=auto;html=1;exitX=1;exitY=0.5;exitDx=0;exitDy=0;entryX=0;entryY=0.5;entryDx=0;entryDy=0;endArrow=none;endFill=0;" edge="1" parent="1" source="d63O-XYvaldmZTIrFxoa-26" target="d63O-XYvaldmZTIrFxoa-37">
          <mxGeometry relative="1" as="geometry">
            <Array as="points">
              <mxPoint x="583" y="304" />
              <mxPoint x="583" y="264" />
              <mxPoint x="601" y="264" />
            </Array>
          </mxGeometry>
        </mxCell>
        <mxCell id="d63O-XYvaldmZTIrFxoa-25" style="edgeStyle=orthogonalEdgeStyle;rounded=0;orthogonalLoop=1;jettySize=auto;html=1;entryX=0;entryY=0.5;entryDx=0;entryDy=0;endArrow=none;endFill=0;" edge="1" parent="1" source="d63O-XYvaldmZTIrFxoa-26" target="d63O-XYvaldmZTIrFxoa-36">
          <mxGeometry relative="1" as="geometry">
            <Array as="points">
              <mxPoint x="583" y="304" />
              <mxPoint x="601" y="304" />
            </Array>
          </mxGeometry>
        </mxCell>
        <mxCell id="1Xk_JtqRyBomEwf9A8p_-27" style="edgeStyle=orthogonalEdgeStyle;rounded=0;orthogonalLoop=1;jettySize=auto;html=1;exitX=1;exitY=0.5;exitDx=0;exitDy=0;entryX=0;entryY=0.5;entryDx=0;entryDy=0;endArrow=none;endFill=0;" edge="1" parent="1" target="1Xk_JtqRyBomEwf9A8p_-24">
          <mxGeometry relative="1" as="geometry">
            <mxPoint x="565" y="303.63" as="sourcePoint" />
            <mxPoint x="601.9999999999992" y="363" as="targetPoint" />
            <Array as="points">
              <mxPoint x="583" y="304" />
              <mxPoint x="583" y="345" />
            </Array>
          </mxGeometry>
        </mxCell>
        <mxCell id="d63O-XYvaldmZTIrFxoa-26" value="Student" style="whiteSpace=wrap;html=1;align=center;" vertex="1" parent="1">
          <mxGeometry x="502" y="288.63" width="62" height="30" as="geometry" />
        </mxCell>
        <mxCell id="d63O-XYvaldmZTIrFxoa-28" style="edgeStyle=orthogonalEdgeStyle;rounded=0;orthogonalLoop=1;jettySize=auto;html=1;exitX=0;exitY=0.5;exitDx=0;exitDy=0;entryX=1;entryY=0.5;entryDx=0;entryDy=0;endArrow=none;endFill=0;" edge="1" parent="1" source="d63O-XYvaldmZTIrFxoa-30" target="d63O-XYvaldmZTIrFxoa-35">
          <mxGeometry relative="1" as="geometry">
            <Array as="points">
              <mxPoint x="380" y="304" />
              <mxPoint x="380" y="265" />
            </Array>
          </mxGeometry>
        </mxCell>
        <mxCell id="d63O-XYvaldmZTIrFxoa-29" style="edgeStyle=orthogonalEdgeStyle;rounded=0;orthogonalLoop=1;jettySize=auto;html=1;exitX=0;exitY=0.5;exitDx=0;exitDy=0;entryX=1;entryY=0.5;entryDx=0;entryDy=0;endArrow=none;endFill=0;" edge="1" parent="1" source="d63O-XYvaldmZTIrFxoa-30" target="d63O-XYvaldmZTIrFxoa-34">
          <mxGeometry relative="1" as="geometry" />
        </mxCell>
        <mxCell id="d63O-XYvaldmZTIrFxoa-30" value="Teacher" style="whiteSpace=wrap;html=1;align=center;" vertex="1" parent="1">
          <mxGeometry x="400" y="288.63" width="62" height="30" as="geometry" />
        </mxCell>
        <mxCell id="d63O-XYvaldmZTIrFxoa-42" style="edgeStyle=orthogonalEdgeStyle;rounded=0;orthogonalLoop=1;jettySize=auto;html=1;exitX=0;exitY=0.5;exitDx=0;exitDy=0;entryX=1;entryY=0.5;entryDx=0;entryDy=0;endArrow=none;endFill=0;" edge="1" parent="1" source="d63O-XYvaldmZTIrFxoa-33" target="d63O-XYvaldmZTIrFxoa-41">
          <mxGeometry relative="1" as="geometry" />
        </mxCell>
        <mxCell id="d63O-XYvaldmZTIrFxoa-43" style="edgeStyle=orthogonalEdgeStyle;rounded=0;orthogonalLoop=1;jettySize=auto;html=1;exitX=0;exitY=0.5;exitDx=0;exitDy=0;entryX=1;entryY=0.5;entryDx=0;entryDy=0;endArrow=none;endFill=0;" edge="1" parent="1" source="d63O-XYvaldmZTIrFxoa-33" target="d63O-XYvaldmZTIrFxoa-38">
          <mxGeometry relative="1" as="geometry" />
        </mxCell>
        <mxCell id="d63O-XYvaldmZTIrFxoa-44" style="edgeStyle=orthogonalEdgeStyle;rounded=0;orthogonalLoop=1;jettySize=auto;html=1;exitX=0;exitY=0.5;exitDx=0;exitDy=0;entryX=1;entryY=0.5;entryDx=0;entryDy=0;endArrow=none;endFill=0;" edge="1" parent="1" source="d63O-XYvaldmZTIrFxoa-33" target="d63O-XYvaldmZTIrFxoa-39">
          <mxGeometry relative="1" as="geometry" />
        </mxCell>
        <mxCell id="d63O-XYvaldmZTIrFxoa-45" style="edgeStyle=orthogonalEdgeStyle;rounded=0;orthogonalLoop=1;jettySize=auto;html=1;exitX=0;exitY=0.5;exitDx=0;exitDy=0;entryX=1;entryY=0.5;entryDx=0;entryDy=0;endArrow=none;endFill=0;" edge="1" parent="1" source="d63O-XYvaldmZTIrFxoa-33" target="d63O-XYvaldmZTIrFxoa-40">
          <mxGeometry relative="1" as="geometry" />
        </mxCell>
        <mxCell id="ZgW916TSisDFz3stznoY-6" style="edgeStyle=orthogonalEdgeStyle;rounded=0;orthogonalLoop=1;jettySize=auto;html=1;exitX=0.5;exitY=1;exitDx=0;exitDy=0;entryX=0.5;entryY=0;entryDx=0;entryDy=0;endArrow=ERoneToMany;endFill=0;" edge="1" parent="1" source="d63O-XYvaldmZTIrFxoa-33" target="OsF3-par39UXUc8R7W-1-1">
          <mxGeometry relative="1" as="geometry">
            <mxPoint x="484.25" y="603" as="targetPoint" />
          </mxGeometry>
        </mxCell>
        <mxCell id="1Xk_JtqRyBomEwf9A8p_-14" style="edgeStyle=orthogonalEdgeStyle;rounded=0;orthogonalLoop=1;jettySize=auto;html=1;exitX=1;exitY=0.5;exitDx=0;exitDy=0;entryX=0;entryY=0.5;entryDx=0;entryDy=0;endArrow=none;endFill=0;" edge="1" parent="1" source="d63O-XYvaldmZTIrFxoa-33" target="rJtOa6wCNJrmgTrpKwCd-1">
          <mxGeometry relative="1" as="geometry" />
        </mxCell>
        <mxCell id="1Xk_JtqRyBomEwf9A8p_-34" style="edgeStyle=orthogonalEdgeStyle;rounded=0;orthogonalLoop=1;jettySize=auto;html=1;entryX=1;entryY=0.5;entryDx=0;entryDy=0;endArrow=none;endFill=0;" edge="1" parent="1" source="d63O-XYvaldmZTIrFxoa-33" target="1Xk_JtqRyBomEwf9A8p_-33">
          <mxGeometry relative="1" as="geometry" />
        </mxCell>
        <mxCell id="1Xk_JtqRyBomEwf9A8p_-38" style="edgeStyle=orthogonalEdgeStyle;rounded=0;orthogonalLoop=1;jettySize=auto;html=1;exitX=0.5;exitY=0;exitDx=0;exitDy=0;entryX=0.5;entryY=1;entryDx=0;entryDy=0;endArrow=ERmandOne;endFill=0;" edge="1" parent="1" source="d63O-XYvaldmZTIrFxoa-33" target="d63O-XYvaldmZTIrFxoa-30">
          <mxGeometry relative="1" as="geometry" />
        </mxCell>
        <mxCell id="1Xk_JtqRyBomEwf9A8p_-39" style="edgeStyle=orthogonalEdgeStyle;rounded=0;orthogonalLoop=1;jettySize=auto;html=1;exitX=0.5;exitY=0;exitDx=0;exitDy=0;entryX=0.5;entryY=1;entryDx=0;entryDy=0;endArrow=ERmandOne;endFill=0;" edge="1" parent="1" source="d63O-XYvaldmZTIrFxoa-33" target="d63O-XYvaldmZTIrFxoa-26">
          <mxGeometry relative="1" as="geometry" />
        </mxCell>
        <mxCell id="d63O-XYvaldmZTIrFxoa-33" value="entry" style="shape=rhombus;perimeter=rhombusPerimeter;whiteSpace=wrap;html=1;align=center;" vertex="1" parent="1">
          <mxGeometry x="444.5" y="423" width="78" height="40" as="geometry" />
        </mxCell>
        <mxCell id="d63O-XYvaldmZTIrFxoa-34" value="total_days" style="ellipse;whiteSpace=wrap;html=1;align=center;" vertex="1" parent="1">
          <mxGeometry x="293" y="289.63" width="68" height="30" as="geometry" />
        </mxCell>
        <mxCell id="d63O-XYvaldmZTIrFxoa-35" value="fine_rate" style="ellipse;whiteSpace=wrap;html=1;align=center;" vertex="1" parent="1">
          <mxGeometry x="299" y="249.63" width="62" height="30" as="geometry" />
        </mxCell>
        <mxCell id="d63O-XYvaldmZTIrFxoa-36" value="total_days" style="ellipse;whiteSpace=wrap;html=1;align=center;" vertex="1" parent="1">
          <mxGeometry x="601" y="288.63" width="68" height="30" as="geometry" />
        </mxCell>
        <mxCell id="d63O-XYvaldmZTIrFxoa-37" value="fine_rate" style="ellipse;whiteSpace=wrap;html=1;align=center;" vertex="1" parent="1">
          <mxGeometry x="601" y="248.63" width="62" height="30" as="geometry" />
        </mxCell>
        <mxCell id="d63O-XYvaldmZTIrFxoa-38" value="issue_day" style="ellipse;whiteSpace=wrap;html=1;align=center;" vertex="1" parent="1">
          <mxGeometry x="313" y="470" width="80" height="30" as="geometry" />
        </mxCell>
        <mxCell id="d63O-XYvaldmZTIrFxoa-39" value="current_fine" style="ellipse;whiteSpace=wrap;html=1;align=center;" vertex="1" parent="1">
          <mxGeometry x="310.5" y="550" width="82.5" height="32.5" as="geometry" />
        </mxCell>
        <mxCell id="d63O-XYvaldmZTIrFxoa-40" value="accumulate_day" style="ellipse;whiteSpace=wrap;html=1;align=center;" vertex="1" parent="1">
          <mxGeometry x="288" y="592" width="105" height="31.25" as="geometry" />
        </mxCell>
        <mxCell id="d63O-XYvaldmZTIrFxoa-41" value="deadline" style="ellipse;whiteSpace=wrap;html=1;align=center;" vertex="1" parent="1">
          <mxGeometry x="313" y="510" width="80" height="30" as="geometry" />
        </mxCell>
        <mxCell id="1Xk_JtqRyBomEwf9A8p_-1" style="edgeStyle=orthogonalEdgeStyle;rounded=0;orthogonalLoop=1;jettySize=auto;html=1;entryX=0;entryY=0.5;entryDx=0;entryDy=0;endArrow=none;endFill=0;" edge="1" parent="1" source="OsF3-par39UXUc8R7W-1-1" target="OsF3-par39UXUc8R7W-1-16">
          <mxGeometry relative="1" as="geometry" />
        </mxCell>
        <mxCell id="1Xk_JtqRyBomEwf9A8p_-2" style="edgeStyle=orthogonalEdgeStyle;rounded=0;orthogonalLoop=1;jettySize=auto;html=1;entryX=0;entryY=0.5;entryDx=0;entryDy=0;endArrow=none;endFill=0;" edge="1" parent="1" source="OsF3-par39UXUc8R7W-1-1" target="OsF3-par39UXUc8R7W-1-17">
          <mxGeometry relative="1" as="geometry" />
        </mxCell>
        <mxCell id="1Xk_JtqRyBomEwf9A8p_-3" style="edgeStyle=orthogonalEdgeStyle;rounded=0;orthogonalLoop=1;jettySize=auto;html=1;entryX=0;entryY=0.5;entryDx=0;entryDy=0;endArrow=none;endFill=0;" edge="1" parent="1" source="OsF3-par39UXUc8R7W-1-1" target="OsF3-par39UXUc8R7W-1-18">
          <mxGeometry relative="1" as="geometry" />
        </mxCell>
        <mxCell id="1Xk_JtqRyBomEwf9A8p_-4" style="edgeStyle=orthogonalEdgeStyle;rounded=0;orthogonalLoop=1;jettySize=auto;html=1;exitX=1;exitY=0.5;exitDx=0;exitDy=0;entryX=0;entryY=0.5;entryDx=0;entryDy=0;endArrow=none;endFill=0;" edge="1" parent="1" source="OsF3-par39UXUc8R7W-1-1" target="OsF3-par39UXUc8R7W-1-19">
          <mxGeometry relative="1" as="geometry" />
        </mxCell>
        <mxCell id="1Xk_JtqRyBomEwf9A8p_-5" style="edgeStyle=orthogonalEdgeStyle;rounded=0;orthogonalLoop=1;jettySize=auto;html=1;entryX=0;entryY=0.5;entryDx=0;entryDy=0;endArrow=none;endFill=0;" edge="1" parent="1" source="OsF3-par39UXUc8R7W-1-1" target="ZgW916TSisDFz3stznoY-2">
          <mxGeometry relative="1" as="geometry" />
        </mxCell>
        <mxCell id="1Xk_JtqRyBomEwf9A8p_-6" style="edgeStyle=orthogonalEdgeStyle;rounded=0;orthogonalLoop=1;jettySize=auto;html=1;entryX=0;entryY=0.5;entryDx=0;entryDy=0;endArrow=none;endFill=0;" edge="1" parent="1" source="OsF3-par39UXUc8R7W-1-1" target="ZgW916TSisDFz3stznoY-1">
          <mxGeometry relative="1" as="geometry" />
        </mxCell>
        <mxCell id="1Xk_JtqRyBomEwf9A8p_-7" style="edgeStyle=orthogonalEdgeStyle;rounded=0;orthogonalLoop=1;jettySize=auto;html=1;entryX=0;entryY=0.5;entryDx=0;entryDy=0;endArrow=none;endFill=0;" edge="1" parent="1" source="OsF3-par39UXUc8R7W-1-1" target="ZgW916TSisDFz3stznoY-3">
          <mxGeometry relative="1" as="geometry" />
        </mxCell>
        <mxCell id="1Xk_JtqRyBomEwf9A8p_-8" style="edgeStyle=orthogonalEdgeStyle;rounded=0;orthogonalLoop=1;jettySize=auto;html=1;entryX=0;entryY=0.5;entryDx=0;entryDy=0;endArrow=none;endFill=0;" edge="1" parent="1" source="OsF3-par39UXUc8R7W-1-1" target="ZgW916TSisDFz3stznoY-5">
          <mxGeometry relative="1" as="geometry" />
        </mxCell>
        <mxCell id="1Xk_JtqRyBomEwf9A8p_-9" style="edgeStyle=orthogonalEdgeStyle;rounded=0;orthogonalLoop=1;jettySize=auto;html=1;entryX=0;entryY=0.5;entryDx=0;entryDy=0;endArrow=none;endFill=0;" edge="1" parent="1" source="OsF3-par39UXUc8R7W-1-1" target="ZgW916TSisDFz3stznoY-4">
          <mxGeometry relative="1" as="geometry" />
        </mxCell>
        <mxCell id="OsF3-par39UXUc8R7W-1-1" value="Book" style="whiteSpace=wrap;html=1;align=center;" vertex="1" parent="1">
          <mxGeometry x="454" y="635" width="60.5" height="29.25" as="geometry" />
        </mxCell>
        <mxCell id="OsF3-par39UXUc8R7W-1-16" value="&lt;u&gt;id&lt;/u&gt;" style="ellipse;whiteSpace=wrap;html=1;align=center;" vertex="1" parent="1">
          <mxGeometry x="562" y="457" width="50" height="31" as="geometry" />
        </mxCell>
        <mxCell id="OsF3-par39UXUc8R7W-1-17" value="title" style="ellipse;whiteSpace=wrap;html=1;align=center;" vertex="1" parent="1">
          <mxGeometry x="562" y="497" width="52" height="31.25" as="geometry" />
        </mxCell>
        <mxCell id="OsF3-par39UXUc8R7W-1-18" value="author" style="ellipse;whiteSpace=wrap;html=1;align=center;" vertex="1" parent="1">
          <mxGeometry x="562" y="537" width="52" height="31.25" as="geometry" />
        </mxCell>
        <mxCell id="OsF3-par39UXUc8R7W-1-19" value="b_category" style="ellipse;whiteSpace=wrap;html=1;align=center;" vertex="1" parent="1">
          <mxGeometry x="562" y="577" width="72" height="31.25" as="geometry" />
        </mxCell>
        <mxCell id="ZgW916TSisDFz3stznoY-1" value="book_picture" style="ellipse;whiteSpace=wrap;html=1;align=center;" vertex="1" parent="1">
          <mxGeometry x="562" y="657" width="82" height="31.25" as="geometry" />
        </mxCell>
        <mxCell id="ZgW916TSisDFz3stznoY-2" value="b_status" style="ellipse;whiteSpace=wrap;html=1;align=center;" vertex="1" parent="1">
          <mxGeometry x="562" y="617" width="62" height="31.25" as="geometry" />
        </mxCell>
        <mxCell id="ZgW916TSisDFz3stznoY-3" value="mimetype" style="ellipse;whiteSpace=wrap;html=1;align=center;" vertex="1" parent="1">
          <mxGeometry x="562" y="697" width="62" height="31.25" as="geometry" />
        </mxCell>
        <mxCell id="ZgW916TSisDFz3stznoY-4" value="created_date" style="ellipse;whiteSpace=wrap;html=1;align=center;" vertex="1" parent="1">
          <mxGeometry x="562" y="777" width="82" height="31.25" as="geometry" />
        </mxCell>
        <mxCell id="ZgW916TSisDFz3stznoY-5" value="filename" style="ellipse;whiteSpace=wrap;html=1;align=center;" vertex="1" parent="1">
          <mxGeometry x="562" y="737" width="62" height="31.25" as="geometry" />
        </mxCell>
        <mxCell id="DGUsKIbVGQiKc4G_ab9I-6" value="" style="edgeStyle=orthogonalEdgeStyle;rounded=0;orthogonalLoop=1;jettySize=auto;html=1;endArrow=ERmandOne;endFill=0;" edge="1" parent="1" source="rJtOa6wCNJrmgTrpKwCd-1" target="DGUsKIbVGQiKc4G_ab9I-1">
          <mxGeometry relative="1" as="geometry" />
        </mxCell>
        <mxCell id="rJtOa6wCNJrmgTrpKwCd-1" value="modify" style="shape=rhombus;perimeter=rhombusPerimeter;whiteSpace=wrap;html=1;align=center;strokeWidth=3;" vertex="1" parent="1">
          <mxGeometry x="732.25" y="423" width="78" height="40" as="geometry" />
        </mxCell>
        <mxCell id="DGUsKIbVGQiKc4G_ab9I-7" style="edgeStyle=orthogonalEdgeStyle;rounded=0;orthogonalLoop=1;jettySize=auto;html=1;entryX=0.5;entryY=0;entryDx=0;entryDy=0;endArrow=none;endFill=0;" edge="1" parent="1" source="DGUsKIbVGQiKc4G_ab9I-1" target="DGUsKIbVGQiKc4G_ab9I-5">
          <mxGeometry relative="1" as="geometry" />
        </mxCell>
        <mxCell id="DGUsKIbVGQiKc4G_ab9I-8" style="edgeStyle=orthogonalEdgeStyle;rounded=0;orthogonalLoop=1;jettySize=auto;html=1;exitX=0.5;exitY=1;exitDx=0;exitDy=0;entryX=0.5;entryY=0;entryDx=0;entryDy=0;endArrow=none;endFill=0;" edge="1" parent="1" source="DGUsKIbVGQiKc4G_ab9I-1" target="DGUsKIbVGQiKc4G_ab9I-2">
          <mxGeometry relative="1" as="geometry" />
        </mxCell>
        <mxCell id="DGUsKIbVGQiKc4G_ab9I-1" value="Stock" style="whiteSpace=wrap;html=1;align=center;strokeWidth=3;" vertex="1" parent="1">
          <mxGeometry x="740.63" y="506" width="61.25" height="30" as="geometry" />
        </mxCell>
        <mxCell id="DGUsKIbVGQiKc4G_ab9I-2" value="num_stock" style="ellipse;whiteSpace=wrap;html=1;align=center;" vertex="1" parent="1">
          <mxGeometry x="770" y="586" width="70" height="31.25" as="geometry" />
        </mxCell>
        <mxCell id="DGUsKIbVGQiKc4G_ab9I-5" value="&lt;span style=&quot;border-bottom: 1px dotted&quot;&gt;title&lt;/span&gt;" style="ellipse;whiteSpace=wrap;html=1;align=center;" vertex="1" parent="1">
          <mxGeometry x="710" y="586" width="51" height="31.25" as="geometry" />
        </mxCell>
        <mxCell id="DGUsKIbVGQiKc4G_ab9I-10" style="edgeStyle=orthogonalEdgeStyle;rounded=0;orthogonalLoop=1;jettySize=auto;html=1;exitX=0.5;exitY=1;exitDx=0;exitDy=0;entryX=0;entryY=0.5;entryDx=0;entryDy=0;endArrow=ERmandOne;endFill=0;" edge="1" parent="1" source="DGUsKIbVGQiKc4G_ab9I-9" target="d63O-XYvaldmZTIrFxoa-22">
          <mxGeometry relative="1" as="geometry" />
        </mxCell>
        <mxCell id="DGUsKIbVGQiKc4G_ab9I-11" style="edgeStyle=orthogonalEdgeStyle;rounded=0;orthogonalLoop=1;jettySize=auto;html=1;exitX=0.5;exitY=0;exitDx=0;exitDy=0;entryX=0;entryY=0.5;entryDx=0;entryDy=0;endArrow=ERzeroToMany;endFill=0;" edge="1" parent="1" source="DGUsKIbVGQiKc4G_ab9I-9" target="d63O-XYvaldmZTIrFxoa-18">
          <mxGeometry relative="1" as="geometry" />
        </mxCell>
        <mxCell id="DGUsKIbVGQiKc4G_ab9I-9" value="manage" style="shape=rhombus;perimeter=rhombusPerimeter;whiteSpace=wrap;html=1;align=center;" vertex="1" parent="1">
          <mxGeometry x="51" y="172.07" width="78" height="40" as="geometry" />
        </mxCell>
        <mxCell id="DGUsKIbVGQiKc4G_ab9I-13" style="edgeStyle=orthogonalEdgeStyle;rounded=0;orthogonalLoop=1;jettySize=auto;html=1;exitX=0.5;exitY=0;exitDx=0;exitDy=0;entryX=0.5;entryY=1;entryDx=0;entryDy=0;endArrow=ERmandOne;endFill=0;" edge="1" parent="1" source="DGUsKIbVGQiKc4G_ab9I-12" target="d63O-XYvaldmZTIrFxoa-22">
          <mxGeometry relative="1" as="geometry" />
        </mxCell>
        <mxCell id="DGUsKIbVGQiKc4G_ab9I-14" style="edgeStyle=orthogonalEdgeStyle;rounded=0;orthogonalLoop=1;jettySize=auto;html=1;exitX=1;exitY=0.5;exitDx=0;exitDy=0;entryX=0;entryY=0.5;entryDx=0;entryDy=0;endArrow=ERzeroToMany;endFill=0;" edge="1" parent="1" source="DGUsKIbVGQiKc4G_ab9I-12" target="OsF3-par39UXUc8R7W-1-1">
          <mxGeometry relative="1" as="geometry" />
        </mxCell>
        <mxCell id="DGUsKIbVGQiKc4G_ab9I-12" value="manage" style="shape=rhombus;perimeter=rhombusPerimeter;whiteSpace=wrap;html=1;align=center;" vertex="1" parent="1">
          <mxGeometry x="161" y="629.62" width="78" height="40" as="geometry" />
        </mxCell>
        <mxCell id="1Xk_JtqRyBomEwf9A8p_-12" value="" style="rounded=0;whiteSpace=wrap;html=1;fillColor=none;strokeWidth=2;" vertex="1" parent="1">
          <mxGeometry x="270" y="241" width="421" height="579" as="geometry" />
        </mxCell>
        <mxCell id="1Xk_JtqRyBomEwf9A8p_-15" value="&lt;b&gt;&lt;font style=&quot;font-size: 18px;&quot;&gt;BOOK ISSUE&lt;/font&gt;&lt;/b&gt;" style="text;html=1;strokeColor=none;fillColor=none;align=center;verticalAlign=middle;whiteSpace=wrap;rounded=0;" vertex="1" parent="1">
          <mxGeometry x="307" y="714.5" width="118.5" height="53.75" as="geometry" />
        </mxCell>
        <mxCell id="1Xk_JtqRyBomEwf9A8p_-29" style="edgeStyle=orthogonalEdgeStyle;rounded=0;orthogonalLoop=1;jettySize=auto;html=1;exitX=1;exitY=0.5;exitDx=0;exitDy=0;entryX=0;entryY=0.5;entryDx=0;entryDy=0;endArrow=none;endFill=0;" edge="1" parent="1">
          <mxGeometry relative="1" as="geometry">
            <mxPoint x="340.9999999999998" y="344" as="sourcePoint" />
            <mxPoint x="380" y="284.63" as="targetPoint" />
          </mxGeometry>
        </mxCell>
        <mxCell id="1Xk_JtqRyBomEwf9A8p_-22" value="book_limit" style="ellipse;whiteSpace=wrap;html=1;align=center;" vertex="1" parent="1">
          <mxGeometry x="293" y="329" width="68" height="30" as="geometry" />
        </mxCell>
        <mxCell id="1Xk_JtqRyBomEwf9A8p_-30" style="edgeStyle=orthogonalEdgeStyle;rounded=0;orthogonalLoop=1;jettySize=auto;html=1;entryX=0;entryY=0.5;entryDx=0;entryDy=0;endArrow=none;endFill=0;" edge="1" parent="1">
          <mxGeometry relative="1" as="geometry">
            <mxPoint x="340.99997869821925" y="384.0153846153846" as="sourcePoint" />
            <mxPoint x="380" y="284.63" as="targetPoint" />
          </mxGeometry>
        </mxCell>
        <mxCell id="1Xk_JtqRyBomEwf9A8p_-23" value="total_issued" style="ellipse;whiteSpace=wrap;html=1;align=center;" vertex="1" parent="1">
          <mxGeometry x="280" y="369" width="81" height="30" as="geometry" />
        </mxCell>
        <mxCell id="1Xk_JtqRyBomEwf9A8p_-24" value="book_limit" style="ellipse;whiteSpace=wrap;html=1;align=center;" vertex="1" parent="1">
          <mxGeometry x="601" y="330" width="68" height="30" as="geometry" />
        </mxCell>
        <mxCell id="1Xk_JtqRyBomEwf9A8p_-28" style="edgeStyle=orthogonalEdgeStyle;rounded=0;orthogonalLoop=1;jettySize=auto;html=1;entryX=1;entryY=0.5;entryDx=0;entryDy=0;endArrow=none;endFill=0;exitX=0;exitY=0.5;exitDx=0;exitDy=0;" edge="1" parent="1" source="1Xk_JtqRyBomEwf9A8p_-26" target="d63O-XYvaldmZTIrFxoa-26">
          <mxGeometry relative="1" as="geometry">
            <mxPoint x="600" y="402.9999999999999" as="sourcePoint" />
            <mxPoint x="563" y="303.63" as="targetPoint" />
            <Array as="points">
              <mxPoint x="583" y="384" />
              <mxPoint x="583" y="304" />
            </Array>
          </mxGeometry>
        </mxCell>
        <mxCell id="1Xk_JtqRyBomEwf9A8p_-26" value="total_issued" style="ellipse;whiteSpace=wrap;html=1;align=center;" vertex="1" parent="1">
          <mxGeometry x="601" y="369" width="81" height="30" as="geometry" />
        </mxCell>
        <mxCell id="1Xk_JtqRyBomEwf9A8p_-33" value="e_status" style="ellipse;whiteSpace=wrap;html=1;align=center;" vertex="1" parent="1">
          <mxGeometry x="323" y="429" width="70" height="29.25" as="geometry" />
        </mxCell>
      </root>
    </mxGraphModel>
  </diagram>
</mxfile>
